<svg width="35" height="24" viewBox="0 0 35 24" fill="none" xmlns="http://www.w3.org/2000/svg">
<rect x="1" y="0.5" width="33" height="23" rx="3.5" fill="#1F72CD"/>
<path fill-rule="evenodd" clip-rule="evenodd" d="M6.59542 8.5L3.41431 15.7467H7.22254L7.69465 14.5913H8.77379L9.2459 15.7467H13.4377V14.8649L13.8112 15.7467H15.9795L16.3531 14.8462V15.7467H25.0709L26.1309 14.6213L27.1235 15.7467L31.6011 15.7561L28.41 12.1436L31.6011 8.5H27.1929L26.161 9.60463L25.1997 8.5H15.7159L14.9015 10.3704L14.068 8.5H10.2677V9.35186L9.84498 8.5H6.59542ZM7.33229 9.52905H9.1886L11.2986 14.4431V9.52905H13.3322L14.9619 13.0524L16.4639 9.52905H18.4873V14.7291H17.2561L17.246 10.6544L15.4511 14.7291H14.3498L12.5448 10.6544V14.7291H10.012L9.53187 13.5633H6.93769L6.45851 14.728H5.10147L7.33229 9.52905ZM24.6198 9.52905H19.6137V14.726H24.5423L26.1309 13.0036L27.6621 14.726H29.2627L26.9362 12.1426L29.2627 9.52905H27.7315L26.151 11.2316L24.6198 9.52905ZM8.23532 10.4089L7.38064 12.4856H9.08901L8.23532 10.4089ZM20.8499 11.555V10.6057V10.6048H23.9736L25.3366 12.1229L23.9132 13.6493H20.8499V12.613H23.581V11.555H20.8499Z" fill="white"/>
<rect x="1" y="0.5" width="33" height="23" rx="3.5" stroke="#F2F4F7"/>
</svg>
