<svg width="205" height="40" viewBox="0 0 205 40" fill="none" xmlns="http://www.w3.org/2000/svg">
<g clip-path="url(#clip0_1246_24801)">
<path d="M113.38 11.7436C113.38 11.7436 106.876 5.51429 106.848 5.48593C106.489 5.18008 106.034 5.01181 105.563 5.01123H105.528H80.2148C79.0818 5.01123 78.125 5.92181 78.125 7.00407V29.9732C78.125 31.0539 79.0788 31.966 80.2148 31.966H112.59C113.123 31.9785 113.64 31.7813 114.029 31.4167C114.236 31.238 114.401 31.0162 114.513 30.7668C114.625 30.5174 114.681 30.2465 114.677 29.9732V13.5752C114.677 12.7646 113.38 11.7436 113.38 11.7436ZM84.4064 12.1287C84.7511 12.1305 85.0876 12.2343 85.3734 12.4271C85.6592 12.62 85.8814 12.8931 86.0121 13.2121C86.1428 13.5311 86.1761 13.8817 86.1078 14.2196C86.0394 14.5576 85.8725 14.8677 85.6281 15.1108C85.3837 15.354 85.0728 15.5193 84.7346 15.5859C84.3963 15.6525 84.0459 15.6174 83.7276 15.4851C83.4092 15.3527 83.1372 15.1291 82.9459 14.8423C82.7545 14.5555 82.6524 14.2185 82.6524 13.8737C82.653 13.644 82.6988 13.4166 82.7873 13.2046C82.8758 12.9925 83.0051 12.8 83.168 12.638C83.3309 12.4759 83.524 12.3475 83.7365 12.2602C83.949 12.1728 84.1766 12.1281 84.4064 12.1287ZM91.5714 27.8923H91.5565C86.947 27.8923 83.1301 24.0917 83.048 19.4149C83.0301 18.4371 83.7943 17.9117 84.5497 17.8982C85.305 17.8848 86.1409 18.4058 86.1603 19.391C86.2155 22.3676 88.6442 24.7873 91.5759 24.7873C94.5076 24.7873 96.9317 22.3825 96.987 19.397C97.0049 18.3923 97.8199 17.8743 98.5946 17.9042C99.3694 17.9341 100.117 18.4431 100.099 19.4208C100.013 24.0812 96.1884 27.8833 91.5729 27.8923H91.5714ZM98.626 15.6188C98.2813 15.6167 97.945 15.5126 97.6594 15.3196C97.3738 15.1266 97.1518 14.8534 97.0213 14.5343C96.8908 14.2153 96.8577 13.8648 96.9263 13.5269C96.9948 13.1891 97.1618 12.8792 97.4062 12.6362C97.6507 12.3932 97.9616 12.228 98.2998 12.1615C98.638 12.095 98.9883 12.1302 99.3066 12.2626C99.6248 12.3949 99.8968 12.6186 100.088 12.9054C100.279 13.1921 100.381 13.5291 100.381 13.8737C100.381 14.1035 100.335 14.3309 100.247 14.5429C100.158 14.755 100.029 14.9475 99.8658 15.1095C99.703 15.2716 99.5098 15.3999 99.2973 15.4873C99.0848 15.5747 98.8572 15.6194 98.6275 15.6188H98.626ZM111.525 14.5739H105.372C105.262 14.5731 105.158 14.5295 105.08 14.4525C105.002 14.3755 104.958 14.2711 104.957 14.1618V8.0281C104.957 8.02365 104.957 8.01911 104.957 8.01466C104.963 7.93722 104.99 7.86303 105.036 7.80037C105.082 7.73772 105.145 7.68904 105.217 7.65979C105.289 7.63053 105.367 7.62185 105.444 7.63469C105.521 7.64753 105.592 7.6814 105.651 7.73253L106.431 8.49981L111.819 13.8737C111.872 13.9325 111.907 14.0052 111.92 14.0833C111.934 14.1614 111.924 14.2416 111.894 14.3147C111.863 14.3877 111.812 14.4505 111.747 14.4956C111.682 14.5407 111.605 14.5663 111.526 14.5694L111.525 14.5739Z" fill="white"/>
<path d="M21.6886 24.3482L19.1062 24.3348L15.0102 24.3124H14.0668C14.0078 24.3136 13.9515 24.3375 13.9097 24.3793C13.868 24.421 13.844 24.4773 13.8429 24.5363C13.81 25.1258 13.557 25.6815 13.1338 26.0933C12.6039 26.5725 11.8516 26.7187 11.159 26.7396C10.5231 26.7591 9.86479 26.6799 9.30055 26.3694C8.80927 26.0897 8.41781 25.6632 8.18101 25.1499C7.83918 24.4453 7.73319 23.6437 7.70483 22.8644H19.7958C20.3631 22.8644 20.9363 22.8883 21.5035 22.8644H21.5289C21.588 22.8637 21.6445 22.8398 21.6864 22.798C21.7282 22.7562 21.752 22.6997 21.7528 22.6405C21.7528 20.8492 21.7782 19.0579 21.4363 17.2949C21.0348 15.2185 20.0929 13.2376 18.3972 11.921C15.9551 10.0148 12.583 9.7177 9.59909 9.96102C8.00188 10.0924 6.40468 10.4297 4.96122 11.1433C3.82455 11.7005 2.83158 12.5122 2.05938 13.5153C0.615923 15.4021 0.118848 17.8189 0.0203285 20.1476C0.00987949 20.4312 0.00539897 20.7149 0.00390625 20.9985C0.00390625 22.8092 0.191988 24.6617 0.842812 26.362C1.50362 28.15 2.75689 29.6578 4.39399 30.6343C6.6868 31.9777 9.47968 32.2599 12.0875 32.1673C14.534 32.0822 17.1627 31.6135 19.145 30.0864C19.8876 29.5073 20.5084 28.7872 20.9718 27.9675C21.4353 27.1477 21.7321 26.2444 21.8453 25.3096C21.8782 25.0697 21.9021 24.8279 21.917 24.5841C21.9182 24.5534 21.9132 24.5228 21.9022 24.4942C21.8913 24.4655 21.8746 24.4393 21.8533 24.4173C21.8319 24.3952 21.8063 24.3778 21.778 24.3659C21.7497 24.354 21.7193 24.348 21.6886 24.3482ZM11.7859 15.3245C12.3696 15.4187 12.8921 15.7409 13.2383 16.2202C13.6862 16.88 13.7951 17.7129 13.8354 18.4966H7.71528C7.7526 17.7622 7.87202 17.0039 8.26162 16.365C8.57962 15.8639 9.08019 15.5062 9.65731 15.3678C10.3546 15.194 11.0821 15.1792 11.7859 15.3245Z" fill="white"/>
<path d="M45.5596 2.40629C45.5588 2.34714 45.535 2.29064 45.4932 2.24881C45.4513 2.20699 45.3948 2.18315 45.3357 2.18237H37.6318C37.5726 2.18315 37.5161 2.20699 37.4743 2.24881C37.4325 2.29064 37.4086 2.34714 37.4079 2.40629V11.4599C36.1618 10.6565 34.7475 10.1508 33.2745 9.98205C31.6773 9.785 30.0025 9.85068 28.5068 10.4911C26.0363 11.5494 24.6914 14.0095 24.0928 16.5159C23.7564 17.9966 23.5931 19.5115 23.6062 21.03C23.5931 22.4626 23.7642 23.8909 24.1152 25.2799C24.4536 26.6459 25.0728 27.9266 25.9333 29.0401C26.849 30.1748 28.0604 31.0345 29.4338 31.5241C30.2397 31.8088 31.0782 31.9914 31.9296 32.0674C32.9635 32.1804 34.0084 32.1427 35.0315 31.9555C36.6899 31.6375 38.4169 30.8673 39.5887 29.6178C39.6141 29.5909 39.638 29.5641 39.6619 29.5357L40.856 31.648C40.8759 31.6818 40.9043 31.7099 40.9383 31.7296C40.9723 31.7492 41.0108 31.7597 41.0501 31.7599H45.3342C45.3933 31.7592 45.4498 31.7353 45.4917 31.6935C45.5335 31.6517 45.5573 31.5952 45.5581 31.536V3.58856C45.5581 3.21089 45.5685 2.83322 45.5581 2.45555L45.5596 2.40629ZM34.6628 25.5441C33.8836 25.5441 33.0461 25.3784 32.5446 24.7245C32.0789 24.12 31.9714 23.293 31.9191 22.5556C31.8545 21.6014 31.851 20.6441 31.9087 19.6895C31.952 18.9431 32.0445 18.1265 32.4714 17.4862C32.8984 16.8458 33.685 16.5905 34.4388 16.5621C35.2554 16.5233 36.1988 16.6218 36.7824 17.2622C37.2675 17.7952 37.39 18.5788 37.4452 19.2715C37.5051 20.1983 37.5151 21.1276 37.475 22.0555C37.4512 22.8243 37.4123 23.6662 37.0601 24.3678C36.7257 25.0335 36.1152 25.3754 35.3942 25.4933C35.153 25.5288 34.9095 25.5458 34.6657 25.5441H34.6628Z" fill="white"/>
<path d="M56.3154 0.610538C55.5183 0.143304 54.548 0.0477678 53.6434 0.0134343C53.3732 0.00298497 53.103 0 52.8329 0C51.8641 0 50.8356 0.0149283 49.9146 0.355278C49.5049 0.499096 49.1319 0.731522 48.8223 1.03599C48.5127 1.34046 48.274 1.70947 48.1233 2.11673C47.9318 2.66137 47.831 3.23373 47.8248 3.81102C47.7934 4.43289 47.8502 5.05608 47.9935 5.66204C48.2204 6.54724 48.7518 7.30408 49.5847 7.71309C50.4535 8.13853 51.4566 8.21167 52.4104 8.22959C53.4314 8.25049 54.5077 8.24004 55.4914 7.92357C56.3363 7.65338 57.0498 7.11002 57.423 6.29049C57.9036 5.23362 57.9245 3.92745 57.7215 2.80191C57.5603 1.90625 57.1185 1.08076 56.3154 0.610538Z" fill="white"/>
<path d="M56.9727 10.5237C56.9719 10.4646 56.9481 10.4081 56.9063 10.3663C56.8645 10.3244 56.808 10.3006 56.7488 10.2998H48.9628C48.9352 10.2994 48.9078 10.3045 48.8822 10.3148C48.8566 10.325 48.8332 10.3402 48.8135 10.3595C48.8135 10.3595 48.8135 10.3595 48.8061 10.367C48.7672 10.4069 48.7457 10.4606 48.7464 10.5163V28.9504C48.7464 29.7968 48.715 30.6506 48.7464 31.4955V31.5314C48.7471 31.5905 48.771 31.647 48.8128 31.6888C48.8546 31.7307 48.9111 31.7545 48.9703 31.7553H56.7563C56.8154 31.7545 56.8719 31.7307 56.9137 31.6888C56.9556 31.647 56.9794 31.5905 56.9802 31.5314V13.1032C56.9802 12.2568 57.0115 11.4045 56.9802 10.5655L56.9727 10.5237Z" fill="white"/>
<path d="M74.5465 10.3001H69.8266V5.16801C69.8258 5.10886 69.8019 5.05236 69.7601 5.01053C69.7183 4.9687 69.6618 4.94487 69.6026 4.94409H62.0629C62.0038 4.94487 61.9473 4.9687 61.9055 5.01053C61.8636 5.05236 61.8398 5.10886 61.839 5.16801V10.3001L58.9163 11.6929L58.4894 11.8959C58.4556 11.9154 58.4276 11.9435 58.4082 11.9773C58.3888 12.0111 58.3787 12.0495 58.3789 12.0884V16.5384C58.3797 16.5975 58.4035 16.654 58.4453 16.6958C58.4872 16.7377 58.5437 16.7615 58.6028 16.7623H61.839V25.2322C61.839 26.9623 62.1689 28.7909 63.4422 30.0568C64.9066 31.5122 67.1262 31.9123 69.0981 32.081C70.9123 32.2133 72.7341 32.2024 74.5465 32.0481C74.6056 32.047 74.6618 32.023 74.7036 31.9813C74.7453 31.9395 74.7693 31.8832 74.7704 31.8242V25.7263C74.77 25.667 74.7463 25.6103 74.7044 25.5684C74.6625 25.5265 74.6058 25.5028 74.5465 25.5024C73.7204 25.6004 72.8883 25.6388 72.0567 25.6173C71.5432 25.5949 70.9446 25.5352 70.5237 25.2083C69.9833 24.7874 69.9922 24.0559 69.9922 23.4334V16.7623H74.5465C74.6057 16.7615 74.6622 16.7377 74.704 16.6958C74.7458 16.654 74.7697 16.5975 74.7704 16.5384V10.524C74.7697 10.4649 74.7458 10.4084 74.704 10.3666C74.6622 10.3247 74.6057 10.3009 74.5465 10.3001Z" fill="white"/>
<path d="M139.256 16.4666C138.902 15.1836 138.299 13.983 137.481 12.9332C136.608 11.8525 135.463 11.0231 134.164 10.5299C132.482 9.90891 130.67 9.72654 128.898 9.99993C127.172 10.2512 125.558 11.0027 124.255 12.1614C124.102 12.3031 123.956 12.4526 123.818 12.6093L122.687 10.4104C122.667 10.3767 122.638 10.3487 122.604 10.3293C122.57 10.3099 122.532 10.2998 122.493 10.3H118.164C118.136 10.2994 118.109 10.3044 118.083 10.3147C118.057 10.3249 118.034 10.3402 118.014 10.3597V10.3671C117.995 10.3868 117.979 10.4101 117.969 10.4357C117.958 10.4613 117.953 10.4887 117.953 10.5164V38.5803C117.953 38.961 117.944 39.3431 117.953 39.7238C117.953 39.7402 117.953 39.7566 117.953 39.773C117.954 39.8322 117.978 39.8887 118.02 39.9305C118.061 39.9723 118.118 39.9962 118.177 39.9969H125.841C125.9 39.9962 125.956 39.9723 125.998 39.9305C126.04 39.8887 126.064 39.8322 126.065 39.773V30.5478C126.608 30.9028 127.182 31.208 127.78 31.4598C128.599 31.7881 129.46 32.0006 130.338 32.0913C132.022 32.2794 133.786 32.1704 135.324 31.4076C137.896 30.1298 139.105 27.3204 139.572 24.6305C139.811 23.2342 139.906 21.8171 139.856 20.4015C139.821 19.0699 139.619 17.7481 139.256 16.4666ZM128.837 25.5022C128.041 25.5022 127.162 25.353 126.644 24.6887C126.196 24.1095 126.091 23.3124 126.047 22.5988C125.991 21.6643 125.987 20.7274 126.036 19.7924C126.072 19.0326 126.144 18.2041 126.545 17.5384C126.947 16.8726 127.636 16.6039 128.365 16.5352C129.168 16.4591 130.141 16.5069 130.753 17.095C131.283 17.6011 131.44 18.3803 131.51 19.0804C131.586 20.0288 131.605 20.9809 131.567 21.9316C131.549 22.7138 131.528 23.5736 131.189 24.2976C130.873 24.9708 130.282 25.3261 129.561 25.447C129.323 25.4843 129.082 25.5028 128.841 25.5022H128.837Z" fill="white"/>
<path d="M163.632 2.40629C163.631 2.34714 163.607 2.29064 163.566 2.24881C163.524 2.20699 163.467 2.18315 163.408 2.18237H155.704C155.645 2.18315 155.589 2.20699 155.547 2.24881C155.505 2.29064 155.481 2.34714 155.48 2.40629V11.4599C154.234 10.6562 152.819 10.1505 151.345 9.98205C149.748 9.785 148.075 9.85068 146.578 10.4911C144.109 11.5494 142.762 14.0095 142.165 16.5159C141.827 17.9964 141.664 19.5114 141.679 21.03C141.666 22.4625 141.836 23.8907 142.186 25.2799C142.525 26.6458 143.144 27.9263 144.004 29.0401C144.92 30.1751 146.132 31.0347 147.506 31.5241C148.31 31.8082 149.146 31.9907 149.995 32.0674C151.028 32.1804 152.073 32.1427 153.096 31.9555C154.756 31.6375 156.483 30.8673 157.655 29.6178C157.681 29.5909 157.703 29.5641 157.728 29.5357C158.126 30.2403 158.524 30.9444 158.923 31.648C158.942 31.6818 158.97 31.7099 159.004 31.7296C159.038 31.7492 159.076 31.7597 159.115 31.7599H163.401C163.46 31.7592 163.516 31.7353 163.558 31.6935C163.6 31.6517 163.624 31.5952 163.625 31.536V3.58856C163.625 3.21089 163.634 2.83322 163.625 2.45555L163.632 2.40629ZM152.735 25.5441C151.956 25.5441 151.119 25.3784 150.617 24.7245C150.153 24.12 150.044 23.293 149.993 22.5556C149.928 21.6014 149.925 20.6441 149.983 19.6895C150.026 18.9431 150.117 18.1265 150.544 17.4862C150.971 16.8458 151.759 16.5905 152.511 16.5621C153.329 16.5233 154.271 16.6218 154.855 17.2622C155.341 17.7952 155.464 18.5788 155.518 19.2715C155.579 20.1982 155.589 21.1276 155.549 22.0555C155.525 22.8243 155.485 23.6662 155.134 24.3678C154.8 25.0335 154.189 25.3754 153.468 25.4933C153.226 25.5288 152.981 25.5458 152.737 25.5441H152.735Z" fill="white"/>
<path d="M181.824 1.8539C180.086 1.70416 178.34 1.6857 176.599 1.79867C175.302 1.90018 173.984 2.09722 172.772 2.59431C171.789 2.96301 170.92 3.58449 170.254 4.39608C169.609 5.25846 169.205 6.27625 169.082 7.34577C168.946 8.3489 168.988 9.37294 168.991 10.3835L166.116 11.7703L165.678 11.9778C165.644 11.9973 165.616 12.0256 165.596 12.0597C165.576 12.0938 165.566 12.1325 165.566 12.1719V16.5382C165.567 16.5973 165.591 16.6538 165.633 16.6957C165.675 16.7375 165.731 16.7613 165.79 16.7621H168.986V29.6969C168.986 30.294 168.959 30.9105 168.986 31.5136V31.5389C168.987 31.5981 169.011 31.6546 169.053 31.6964C169.094 31.7382 169.151 31.7621 169.21 31.7628H176.874C176.933 31.7621 176.989 31.7382 177.031 31.6964C177.073 31.6546 177.097 31.5981 177.098 31.5389V17.1577C177.098 17.0323 177.108 16.8979 177.108 16.7666H181.818C181.877 16.7658 181.933 16.742 181.975 16.7001C182.017 16.6583 182.041 16.6018 182.042 16.5427V10.5239C182.041 10.4647 182.017 10.4082 181.975 10.3664C181.933 10.3246 181.877 10.3007 181.818 10.2999H177.262C177.262 10.0133 177.262 9.72821 177.262 9.4431C177.262 9.39831 177.262 9.35353 177.262 9.30875C177.262 9.26397 177.262 9.24157 177.262 9.20873V9.15947C177.262 9.15947 177.262 9.17888 177.262 9.13111C177.272 9.07423 177.285 9.01793 177.301 8.96243C177.31 8.93108 177.32 8.90122 177.331 8.87137C177.337 8.84702 177.348 8.82387 177.362 8.8027C177.483 8.56809 177.684 8.38403 177.928 8.28322C178.328 8.11521 178.755 8.02114 179.189 8.00557C180.061 7.9605 180.934 7.99548 181.8 8.11006C181.859 8.10929 181.915 8.08545 181.957 8.04362C181.999 8.0018 182.023 7.94529 182.024 7.88615V2.0808C182.024 2.02509 182.003 1.97128 181.967 1.92949C181.93 1.88771 181.879 1.86082 181.824 1.8539Z" fill="white"/>
<path d="M204.121 24.105C204.03 23.3399 203.762 22.6064 203.339 21.9629C202.926 21.3649 202.401 20.8524 201.794 20.4538C200.522 19.5939 199.005 19.1371 197.529 18.7714C196.144 18.4296 194.723 18.2027 193.357 17.7802C192.863 17.6483 192.393 17.4376 191.966 17.1562C191.892 17.1042 191.824 17.0458 191.761 16.9816C191.726 16.9466 191.692 16.9097 191.661 16.8711L191.652 16.8592L191.606 16.7935C191.582 16.7547 191.561 16.7159 191.54 16.6771C191.54 16.6771 191.525 16.6442 191.519 16.6338C191.513 16.6233 191.506 16.598 191.5 16.5785C191.486 16.5389 191.475 16.4985 191.466 16.4576C191.466 16.4352 191.466 16.4128 191.454 16.3905C191.453 16.3765 191.453 16.3626 191.454 16.3487C191.421 16.0191 191.51 15.689 191.706 15.4217C192.004 15.0649 192.491 14.9335 192.928 14.8738C193.887 14.7454 195.129 14.8037 195.632 15.7695C195.857 16.2054 195.903 16.7159 195.905 17.1995C195.906 17.2587 195.929 17.3152 195.971 17.357C196.013 17.3988 196.07 17.4227 196.129 17.4235H203.421C203.48 17.4227 203.536 17.3988 203.578 17.357C203.62 17.3152 203.644 17.2587 203.645 17.1995C203.645 15.5262 203.357 13.7796 202.259 12.4555C201.098 11.0523 199.256 10.4508 197.517 10.1656C196.226 9.96698 194.921 9.87461 193.615 9.88949C192.198 9.87265 190.784 10.0093 189.397 10.297C187.55 10.7045 185.698 11.5226 184.55 13.0855C183.617 14.3543 183.308 16.0128 183.53 17.5563C183.753 19.0998 184.681 20.3493 185.986 21.1733C187.29 21.9973 188.852 22.4332 190.355 22.7929C191.742 23.1258 193.181 23.3557 194.517 23.8707C194.964 24.0438 195.453 24.2857 195.778 24.629C195.907 24.7692 196.009 24.9328 196.077 25.1112C196.169 25.3712 196.183 25.6524 196.117 25.9202C195.877 27.0667 194.475 27.1995 193.518 27.1428C193.015 27.1314 192.524 26.9905 192.091 26.7338C191.742 26.4963 191.48 26.1514 191.345 25.7516C191.185 25.2654 191.111 24.7553 191.125 24.2439C191.124 24.1848 191.1 24.1286 191.058 24.0868C191.017 24.0451 190.96 24.0211 190.901 24.0199H183.362C183.334 24.0194 183.307 24.0244 183.281 24.0346C183.255 24.0449 183.232 24.0602 183.212 24.0797L183.202 24.0901C183.182 24.1095 183.166 24.1328 183.156 24.1585C183.145 24.1841 183.14 24.2117 183.141 24.2394C183.141 26.0755 183.58 27.9355 184.824 29.3357C186.096 30.7672 187.976 31.4763 189.813 31.8241C191.045 32.0463 192.293 32.1607 193.545 32.1659C194.954 32.2026 196.363 32.0728 197.742 31.7793C199.728 31.3315 201.665 30.3925 202.918 28.7416C203.905 27.4106 204.336 25.7481 204.121 24.105Z" fill="white"/>
</g>
<defs>
<clipPath id="clip0_1246_24801">
<rect width="204.171" height="40" fill="white"/>
</clipPath>
</defs>
</svg>
