<svg width="35" height="24" viewBox="0 0 35 24" fill="none" xmlns="http://www.w3.org/2000/svg">
<rect x="1" y="0.5" width="33" height="23" rx="3.5" fill="white"/>
<path fill-rule="evenodd" clip-rule="evenodd" d="M17.679 16.8295C16.4949 17.8275 14.959 18.43 13.2807 18.43C9.53582 18.43 6.5 15.4303 6.5 11.73C6.5 8.02972 9.53582 5.03003 13.2807 5.03003C14.959 5.03003 16.4949 5.63253 17.679 6.63057C18.863 5.63253 20.3989 5.03003 22.0773 5.03003C25.8221 5.03003 28.858 8.02972 28.858 11.73C28.858 15.4303 25.8221 18.43 22.0773 18.43C20.3989 18.43 18.863 17.8275 17.679 16.8295Z" fill="#ED0006"/>
<path fill-rule="evenodd" clip-rule="evenodd" d="M17.679 16.8295C19.1369 15.6006 20.0614 13.772 20.0614 11.73C20.0614 9.68807 19.1369 7.85947 17.679 6.63057C18.863 5.63253 20.3989 5.03003 22.0772 5.03003C25.8221 5.03003 28.8579 8.02972 28.8579 11.73C28.8579 15.4303 25.8221 18.43 22.0772 18.43C20.3989 18.43 18.863 17.8275 17.679 16.8295Z" fill="#F9A000"/>
<path fill-rule="evenodd" clip-rule="evenodd" d="M17.679 16.8295C19.1369 15.6006 20.0614 13.772 20.0614 11.7301C20.0614 9.68811 19.1369 7.85952 17.679 6.63062C16.2211 7.85952 15.2966 9.68811 15.2966 11.7301C15.2966 13.772 16.2211 15.6006 17.679 16.8295Z" fill="#FF5E00"/>
<rect x="1" y="0.5" width="33" height="23" rx="3.5" stroke="#F2F4F7"/>
</svg>
