<svg width="218" height="212" viewBox="0 0 218 212" fill="none" xmlns="http://www.w3.org/2000/svg">
<g clip-path="url(#clip0_1307_47729)">
<path d="M175.383 52.0301C171.957 52.0301 168.33 52.341 165.05 51.1782C159.842 49.3285 155.934 44.7016 155.223 39.1903C154.839 36.2157 155.096 33.0706 155.096 30.0743V21.2044C155.091 20.9989 155.152 20.7973 155.269 20.6284C152.705 20.8096 150.033 20.596 147.475 20.596H53.116C52.7076 20.596 52.3047 20.596 51.8748 20.596L50.6091 20.5743C50.2305 20.5743 49.852 20.5743 49.4734 20.5743H48.9325H48.5999H48.2808C48.0645 20.5743 47.8482 20.5959 47.6318 20.6149L47.2776 20.6446L46.9504 20.6798C46.8287 20.6933 46.7097 20.7068 46.5907 20.7258L46.2391 20.7798L46.039 20.815C46.5528 22.9567 47.0675 25.0994 47.5831 27.243L48.7838 32.235C48.845 32.4985 48.8024 32.7755 48.6648 33.0084C48.7054 33.1734 48.7432 33.3383 48.7838 33.5033C48.9568 34.2199 48.2997 34.9987 47.5372 34.75L43.7729 33.5276L41.504 32.7921L35.725 30.9154C35.7007 31.0343 35.6791 31.156 35.6601 31.2777C35.6412 31.3994 35.6115 31.5995 35.5925 31.7618C35.4059 33.3411 35.5087 34.9906 35.5087 36.5726V69.6698L38.1291 70.8002L46.1634 74.267C46.2705 74.148 46.4038 74.0554 46.5528 73.9966C50.0046 72.6274 53.5699 71.5632 57.2075 70.8164C59.3257 70.3822 61.4675 70.0725 63.622 69.8889C67.2263 69.5724 70.8549 69.6631 74.4389 70.1593C75.1529 70.2621 75.8668 70.3783 76.578 70.5163C77.0729 70.6109 77.5624 70.7218 78.0491 70.8435C82.0136 71.8332 85.7346 73.6424 89.4475 75.3244C96.1783 78.3748 102.823 81.6226 109.435 84.9272C114.797 87.6071 120.395 90.4006 123.897 95.4737C126.523 99.2786 126.842 104.203 123.832 107.805C124.716 108.154 125.533 108.451 126.212 109.157L130.284 113.33L137.972 121.207C138.109 121.351 138.201 121.531 138.237 121.726C138.273 121.921 138.252 122.122 138.177 122.306C138.101 122.489 137.973 122.646 137.81 122.758C137.646 122.87 137.454 122.933 137.256 122.938H132.753C128.662 122.938 124.516 123.141 120.43 122.938L120.16 122.916L120.016 122.895C119.207 122.723 118.422 122.45 117.68 122.083C118.277 126.794 118.302 131.854 116.636 136.324C115.37 139.715 112.544 142.36 109.261 143.79C108.18 144.269 106.855 144.764 105.584 144.888C104.929 148.782 102.468 151.987 98.9772 153.91C96.0648 155.516 92.3924 155.262 89.4773 153.769C88.7531 153.394 88.1156 152.872 87.6059 152.236C84.4284 154.448 80.1314 154.605 76.6186 153.069C72.4432 151.243 69.3171 147.795 67.4242 143.75C66.7508 147.338 66.5615 151.076 66.3289 154.51C66.0585 158.439 65.4555 161.941 63.7843 165.57C61.2423 171.092 57.0804 175.779 52.3453 179.53C47.2072 183.602 41.4553 186.523 35.4897 189.022V200.155H184.667C184.61 198.451 184.699 196.723 184.699 195.017V52.0301H175.383ZM87.6194 52.744C84.8097 52.5844 82.5165 50.7969 80.5397 48.9581C79.3877 47.8764 78.1951 46.8568 76.9944 45.8401C73.1608 46.0778 69.3685 46.7667 65.6961 47.8926C64.0573 51.4649 61.9102 54.9561 58.9031 57.4521L58.8463 57.4953C58.8009 57.5391 58.751 57.5781 58.6976 57.6116C57.0372 58.6933 54.4546 59.775 52.5562 58.6933C50.5524 57.5575 50.3279 54.9561 51.5719 53.1956C53.7353 50.1128 57.9512 48.4659 61.3477 47.2138C62.296 46.8659 63.2542 46.5441 64.2223 46.2484C64.3467 45.9617 64.4684 45.6751 64.5874 45.3911C65.7178 42.6626 66.6588 39.7122 67.0591 36.7376C65.7255 35.1976 64.6315 33.4654 63.814 31.5995C63.0487 29.7796 62.6295 26.429 65.5636 26.4614C68.1029 26.4831 68.8682 29.3658 69.1359 31.3913C69.3298 32.9284 69.348 34.4825 69.19 36.0237C71.7455 38.8848 74.7499 41.3321 77.6867 43.7903C80.4342 43.6253 83.2494 43.7524 85.7995 44.6015C87.7546 45.2478 89.6693 46.5675 90.6239 48.4442C91.8408 50.7861 90.0641 52.8819 87.6194 52.744ZM149.703 114.59L160.52 111.561C161.783 111.207 162.316 113.165 161.061 113.516L150.228 116.545C148.981 116.897 148.449 114.942 149.703 114.59ZM148.914 140.689L141.009 132.276C140.114 131.324 141.55 129.888 142.443 130.84L150.347 139.242C151.239 140.205 149.809 141.641 148.914 140.689ZM157.462 128.79L146.764 125.312C145.528 124.909 146.061 122.952 147.305 123.354L158 126.835C159.239 127.235 158.706 129.193 157.459 128.787L157.462 128.79Z" fill="#E9EFFC"/>
<path d="M184.712 49.8098V50.0018H177.5C174.663 50.0018 171.764 50.1802 168.935 49.9558C163.278 49.5042 158.41 45.2206 157.334 39.6418C156.793 36.8348 157.123 33.7087 157.123 30.872V22.0426C165.194 30.1553 173.266 38.2789 181.337 46.4132C182.458 47.5436 183.583 48.6758 184.712 49.8098Z" fill="#96B2F3"/>
<path d="M35.4969 189.03V200.163H33.4688V189.86C33.8095 189.725 34.1475 189.59 34.4828 189.449L35.4969 189.03Z" fill="#020D3E"/>
<path d="M186.178 48.4092C182.005 44.0067 177.616 39.7908 173.341 35.4883L158.248 20.2959C157.578 19.6225 156.929 18.6544 155.933 18.5679C154.938 18.4813 153.884 18.5679 152.878 18.5679H51.4956C50.5275 18.5679 49.5566 18.5679 48.5885 18.5679C47.5724 18.5751 46.5592 18.6783 45.5625 18.8762C45.7193 19.5252 45.8735 20.1742 46.0303 20.8232L46.2331 20.7908C46.3494 20.7691 46.4684 20.7529 46.5847 20.7367C46.701 20.7205 46.8227 20.7042 46.9444 20.6907L47.2716 20.6555L47.6259 20.6258C47.8422 20.6069 48.0585 20.5961 48.2749 20.5852H48.5939H48.9266H49.4674C49.846 20.5852 50.2246 20.5852 50.6032 20.5852L51.8688 20.6069C52.288 20.6069 52.7017 20.6069 53.11 20.6069H147.469C150.027 20.6069 152.699 20.8205 155.263 20.6393C155.146 20.8082 155.085 21.0099 155.09 21.2153V30.0852C155.09 33.0815 154.819 36.2185 155.217 39.2013C155.928 44.7125 159.836 49.3395 165.044 51.1892C168.324 52.352 171.951 52.041 175.377 52.041H184.707V195.044C184.707 196.742 184.617 198.47 184.674 200.182H186.735V53.1497C186.74 51.7679 187.205 49.4963 186.178 48.4092ZM184.712 50.002H177.5C174.663 50.002 171.764 50.1805 168.935 49.956C163.278 49.5044 158.411 45.2209 157.334 39.642C156.793 36.835 157.123 33.7089 157.123 30.8722V22.0428C165.195 30.1556 173.266 38.2791 181.337 46.4135C182.458 47.5474 183.583 48.6796 184.712 49.81V50.002Z" fill="#020D3E"/>
<path d="M35.7193 30.9263C35.6949 31.0453 35.6733 31.167 35.6544 31.2887C35.6354 31.4104 35.6057 31.6105 35.5867 31.7728C35.4002 33.3521 35.5029 35.0017 35.5029 36.5836V69.6809L34.4888 69.2428V69.2292H34.4509L33.4747 68.8074V33.9794C33.4705 32.7486 33.5937 31.5206 33.8425 30.3152L35.7193 30.9263Z" fill="#020D3E"/>
<path d="M33.5273 191.82V68.7212L35.3938 69.5696V191.82H33.5273Z" fill="#020D3E" stroke="#020D3E" stroke-width="0.169675"/>
<rect x="35.6465" y="66.77" width="133.025" height="122.335" fill="#E9EFFC"/>
<rect x="34.1191" y="198.098" width="152.707" height="2.03609" fill="#020D3E"/>
<path d="M48.6585 33.0194C48.7962 32.7865 48.8388 32.5095 48.7776 32.246L47.5768 27.254C47.0612 25.1123 46.5465 22.9696 46.0327 20.826H45.9705L46.03 20.8125C45.8732 20.1635 45.719 19.5145 45.5622 18.8655C44.448 14.2376 43.3357 9.61065 42.2251 4.98459C41.9169 3.70999 41.6104 2.43629 41.3057 1.1635C41.1056 0.335998 39.8509 0.149399 39.4506 0.920108L34.7101 10.0605L28.6174 0.920108C28.5367 0.789037 28.4277 0.677654 28.2984 0.594126C28.169 0.510599 28.0227 0.457025 27.8701 0.437325C27.7174 0.417625 27.5623 0.432304 27.416 0.480272C27.2697 0.528241 27.136 0.608297 27.0246 0.714583L16.7972 8.97335C16.6775 9.05716 16.5826 9.17176 16.5226 9.30504C16.4626 9.43832 16.4398 9.58532 16.4565 9.73052C16.4562 9.84071 16.4783 9.94983 16.5215 10.0512C16.5647 10.1525 16.6282 10.244 16.7079 10.3201C16.6157 10.4044 16.5449 10.5094 16.5012 10.6265C16.4574 10.7435 16.4421 10.8693 16.4565 10.9934C16.4567 11.1245 16.4876 11.2536 16.5468 11.3706C16.606 11.4875 16.6917 11.589 16.7972 11.6668L23.9364 17.562L17.0027 21.7833C16.879 21.8578 16.7726 21.9577 16.6906 22.0766C16.6087 22.1954 16.553 22.3304 16.5274 22.4725C16.5018 22.6146 16.5068 22.7605 16.5422 22.9005C16.5775 23.0404 16.6424 23.1713 16.7323 23.2842C16.63 23.4162 16.5611 23.571 16.5316 23.7354C16.5021 23.8998 16.5127 24.0689 16.5626 24.2282C16.6126 24.3876 16.7003 24.5326 16.8184 24.6507C16.9365 24.7689 17.0813 24.8567 17.2407 24.9067L33.8366 30.2936L35.7134 30.9047L41.4923 32.7815L43.7612 33.517L47.5255 34.7394C48.2881 34.9882 48.9452 34.1985 48.7722 33.4927C48.7478 33.3494 48.6991 33.1844 48.6585 33.0194ZM46.0598 30.8831L44.1668 30.2665L36.749 27.8571L34.8318 27.2351L21.5512 22.9083L21.2808 22.8245L20.0071 22.4107L19.9206 22.3837L26.4973 18.3814L27.0652 18.0353C27.1737 17.9655 27.2659 17.8733 27.3356 17.7648C27.4966 17.5758 27.5791 17.3322 27.566 17.0842C27.5529 16.8362 27.4453 16.6027 27.2653 16.4316L19.8746 10.3255L19.0985 9.68456L27.4978 2.8996L33.9312 12.5483C34.0915 12.7821 34.3338 12.9472 34.61 13.0108C34.7206 13.0376 34.8348 13.0459 34.948 13.0351C35.1026 13.0257 35.252 12.9758 35.3811 12.8903C35.5102 12.8049 35.6145 12.6869 35.6836 12.5483C37.1096 9.79904 38.5357 7.04791 39.9617 4.295C41.1714 9.31767 42.3793 14.3394 43.5854 19.3603C43.7422 20.0147 43.8991 20.6665 44.0586 21.3209C44.6499 23.7872 45.2431 26.2526 45.838 28.717C45.8543 28.79 45.8732 28.8603 45.8894 28.9333C46.0517 29.6094 46.2139 30.2855 46.3789 30.9642L46.0598 30.8831Z" fill="#020D3E"/>
<path d="M46.3916 30.994L46.0589 30.8859L44.166 30.2693L36.7482 27.8598L34.8309 27.2378L21.5504 22.911L21.2799 22.8272L20.0062 22.4135L19.9197 22.3864L26.4964 18.3841L27.0643 18.038C27.1728 17.9683 27.265 17.876 27.3348 17.7676C27.4958 17.5785 27.5782 17.335 27.5651 17.087C27.552 16.839 27.4445 16.6054 27.2645 16.4344L19.8737 10.3282L19.0977 9.68731L27.497 2.90234L33.9304 12.5511C34.0907 12.7849 34.3329 12.9499 34.6092 13.0135C34.7197 13.0404 34.8339 13.0486 34.9472 13.0379C35.1017 13.0285 35.2511 12.9785 35.3802 12.8931C35.5093 12.8076 35.6137 12.6897 35.6827 12.5511C37.1088 9.80178 38.5348 7.05066 39.9609 4.29774C41.1706 9.32042 42.3784 14.3422 43.5845 19.3631C43.7414 20.0175 43.8982 20.6692 44.0578 21.3236C44.6491 23.7899 45.2422 26.2553 45.8372 28.7198C45.8534 28.7928 45.8723 28.8631 45.8885 28.9361C46.0643 29.6392 46.2266 30.3179 46.3916 30.994Z" fill="#E9EFFC"/>
<path d="M53.9382 53.5471C55.8609 51.6541 58.5543 50.4669 61.0287 49.4907C61.6858 49.2203 62.3511 48.985 63.0244 48.7524C61.629 51.4296 59.874 53.9635 57.616 55.8916C56.5532 56.5758 54.5791 57.6467 53.4352 56.8219C52.102 55.8754 53.0755 54.38 53.9382 53.5471Z" fill="#E9EFFC"/>
<path d="M67.2693 33.6384C66.4501 32.5376 65.8111 31.3135 65.3763 30.012C65.2167 29.4955 64.9274 28.4598 65.7982 28.5652C66.431 28.6409 66.7013 29.6821 66.842 30.1878C67.0659 31.0181 67.1974 31.8706 67.2341 32.7298C67.2585 33.0299 67.2666 33.3328 67.2693 33.6384Z" fill="#E9EFFC"/>
<path d="M74.2613 44.1119C71.7092 44.4288 69.18 44.9093 66.6895 45.5505C67.6046 43.319 68.3124 41.0079 68.8041 38.6466C70.616 40.4828 72.6198 42.1621 74.5074 43.7495L74.8535 44.0416L74.2613 44.1119Z" fill="#E9EFFC"/>
<path d="M82.7631 48.2413C81.8383 47.43 80.9324 46.6188 80.0156 45.7886C80.4032 45.7994 80.7899 45.8156 81.1757 45.8372C82.4966 45.8933 83.8059 46.1084 85.0753 46.4781C86.5139 46.9243 88.6908 48.1007 88.9504 49.7232C89.1938 51.2376 86.8681 50.6454 86.065 50.3479C84.8345 49.9098 83.7393 49.0986 82.7631 48.2413Z" fill="#E9EFFC"/>
<path d="M65.8249 28.4314C65.5826 28.4021 65.3906 28.4492 65.2586 28.5777C65.1307 28.7022 65.0854 28.8783 65.0763 29.0486C65.0582 29.3869 65.179 29.7979 65.2576 30.0523L65.2575 30.0523L65.2584 30.055C65.6941 31.3703 66.336 32.6081 67.1602 33.722L67.4078 34.0566L67.4041 33.6403C67.4028 33.4952 67.3973 33.3509 67.3919 33.2091L67.3908 33.1797C67.3851 33.0278 67.3797 32.8788 67.3797 32.7302H67.3799L67.3796 32.7244C67.3425 31.8553 67.2095 30.9929 66.983 30.153L66.9827 30.152C66.9785 30.137 66.9743 30.1216 66.9698 30.1056C66.9004 29.8548 66.7971 29.4817 66.6364 29.1559C66.4694 28.8175 66.2153 28.4783 65.8249 28.4314ZM65.8249 28.4314L65.8086 28.5657L65.8247 28.4314C65.8248 28.4314 65.8248 28.4314 65.8249 28.4314ZM77.6205 43.8834L77.6617 43.9179L77.7153 43.9147C80.444 43.7529 83.2397 43.8806 85.7776 44.7194C87.71 45.3582 89.59 46.6591 90.5238 48.495C91.0998 49.6287 90.9554 50.6853 90.3907 51.4407C89.8232 52.1998 88.8193 52.6704 87.6483 52.5985L87.6475 52.5985C84.8901 52.4446 82.6282 50.6893 80.6524 48.8486C79.498 47.7728 78.3035 46.7435 77.1024 45.7264L77.0609 45.6912L77.0066 45.6946C73.1623 45.933 69.3595 46.6238 65.677 47.7528L65.6191 47.7706L65.5938 47.8257C63.9593 51.3886 61.8177 54.8583 58.8393 57.3358L58.7848 57.3773L58.7786 57.3821L58.7729 57.3875C58.7342 57.4249 58.6918 57.458 58.6463 57.4865L58.6463 57.4865L58.6443 57.4878C57.8222 58.0234 56.7741 58.5563 55.7021 58.822C54.6292 59.0879 53.5487 59.0825 52.6438 58.5654L52.6434 58.5652C50.7254 57.478 50.4936 54.9745 51.7028 53.2631L51.7029 53.263C52.7734 51.7452 54.3484 50.5749 56.0867 49.6264C57.8247 48.678 59.7167 47.9562 61.415 47.3302L61.415 47.3302C62.3608 46.9813 63.3165 46.6604 64.2821 46.3673L64.342 46.3491L64.3669 46.2917C64.4263 46.1549 64.4831 46.0198 64.5389 45.8868C64.6036 45.733 64.6669 45.5822 64.7317 45.4351L64.7317 45.4351L64.7329 45.4321C65.855 42.7055 66.8113 39.7353 67.2136 36.7451L67.2217 36.6847L67.1818 36.6386C65.8573 35.1091 64.7708 33.3888 63.9588 31.5356C63.5817 30.6414 63.2947 29.3772 63.4556 28.3503C63.5358 27.839 63.7251 27.3976 64.0578 27.0859C64.3885 26.7759 64.8762 26.5797 65.5829 26.5862L65.583 26.5862C66.7889 26.5964 67.5763 27.281 68.1029 28.23C68.6322 29.1839 68.8878 30.3904 69.0224 31.3982C69.2149 32.9249 69.2329 34.4686 69.076 35.9994L69.0699 36.0586L69.1095 36.1031C71.4486 38.7301 74.1781 41.0089 76.8734 43.2591C77.1228 43.4674 77.372 43.6754 77.6205 43.8834ZM57.6771 56.0139L57.6847 56.009L57.6915 56.0032C59.9782 54.0599 61.743 51.5098 63.1432 48.8152L63.2995 48.5144L62.9791 48.625C62.3058 48.8576 61.6376 49.0938 60.9769 49.3657C58.5034 50.3416 55.7865 51.5369 53.8423 53.4509C53.4098 53.8739 52.9327 54.4746 52.7357 55.1029C52.6366 55.4191 52.6063 55.7491 52.6956 56.0683C52.7853 56.3892 52.9923 56.6861 53.344 56.94L53.3441 56.9401C53.9709 57.3921 54.8064 57.3132 55.5858 57.0597C56.3717 56.8042 57.1425 56.358 57.6771 56.0139ZM66.5624 45.4997L66.4601 45.7492L66.7212 45.682C69.206 45.0422 71.7294 44.5628 74.2757 44.2466C74.2758 44.2466 74.2759 44.2466 74.276 44.2465L74.8675 44.1763L75.1769 44.1396L74.9388 43.9387L74.5926 43.6467L74.5925 43.6465L74.4919 43.562C72.6331 41.9989 70.673 40.3506 68.8984 38.5521L68.7212 38.3726L68.6698 38.6195C68.1798 40.9727 67.4744 43.2758 66.5624 45.4997ZM86.0168 50.4888L86.0393 50.4971H86.0422C86.4597 50.6478 87.2425 50.8683 87.9041 50.8625C88.2389 50.8595 88.568 50.7986 88.799 50.6158C89.0423 50.4233 89.1487 50.1195 89.0823 49.7024L89.0823 49.7023C88.9441 48.8387 88.3005 48.1114 87.5331 47.5508C86.7624 46.9877 85.8444 46.5761 85.1137 46.3494L85.1115 46.3487C83.832 45.9761 82.5122 45.7592 81.1808 45.7026C80.794 45.6809 80.4064 45.6647 80.0178 45.6538L79.6521 45.6436L79.9233 45.8892C80.8404 46.7198 81.7468 47.5315 82.6723 48.3434C83.653 49.2045 84.7631 50.0286 86.0168 50.4888Z" fill="#5158F5" stroke="#5158F5" stroke-width="0.270424"/>
</g>
<path d="M209.367 120.898C209.367 125.914 200.313 129.439 198.843 133.966C197.318 138.637 202.518 146.821 199.693 150.728C196.868 154.635 187.432 152.236 183.486 155.107C179.539 157.977 179.012 167.647 174.318 169.168C169.789 170.641 163.646 163.175 158.624 163.175C153.603 163.175 147.464 170.641 142.935 169.168C138.262 167.647 137.676 157.952 133.767 155.107C129.859 152.261 120.432 154.682 117.56 150.728C114.688 146.774 119.914 138.659 118.41 133.966C116.94 129.439 107.887 125.897 107.887 120.898C107.887 115.9 116.94 112.354 118.41 107.827C119.935 103.134 114.735 94.9716 117.56 91.0645C120.385 87.1575 129.821 89.5569 133.767 86.686C137.714 83.8152 138.241 74.1495 142.935 72.6249C147.464 71.1555 153.607 78.6171 158.624 78.6171C163.642 78.6171 169.785 71.1555 174.318 72.6249C178.991 74.1495 179.577 83.8449 183.486 86.686C187.394 89.5272 196.821 87.1107 199.693 91.0645C202.565 95.0183 197.34 103.134 198.843 107.827C200.313 112.358 209.367 115.883 209.367 120.898Z" fill="#41E4BA"/>
<path d="M184.14 98.9636C182.653 97.4773 179.577 97.1672 178.133 98.9636L162.698 118.142L155.255 127.396L151.534 132.025C151.109 132.543 150.684 133.117 150.285 133.686C149.86 133.134 149.41 132.581 148.985 132.017C147.9 130.581 146.848 129.122 145.828 127.638C143.645 124.462 141.61 121.19 139.723 117.824C137.043 113.059 129.697 117.335 132.391 122.109C135.602 127.795 139.231 133.236 143.245 138.387C145.051 140.71 146.975 143.98 150.306 143.98C153.811 143.98 155.897 140.081 157.808 137.703L184.123 104.969C185.576 103.185 185.886 100.709 184.14 98.9636Z" fill="#FDFBFF"/>
<defs>
<clipPath id="clip0_1307_47729">
<rect width="217.972" height="211.485" fill="white" transform="translate(0.0136719 0.257446)"/>
</clipPath>
</defs>
</svg>
