<svg width="35" height="24" viewBox="0 0 35 24" fill="none" xmlns="http://www.w3.org/2000/svg">
<rect x="1" y="0.5" width="33" height="23" rx="3.5" fill="white"/>
<path fill-rule="evenodd" clip-rule="evenodd" d="M11.2503 15.8583H9.19056L7.646 9.79247C7.57269 9.51344 7.41703 9.26676 7.18806 9.1505C6.61664 8.85833 5.98696 8.6258 5.30005 8.50853V8.27499H8.61813C9.07607 8.27499 9.41953 8.6258 9.47677 9.03323L10.2782 13.4087L12.3369 8.27499H14.3394L11.2503 15.8583ZM15.4843 15.8583H13.539L15.1408 8.27499H17.0861L15.4843 15.8583ZM19.6028 10.3758C19.66 9.96738 20.0035 9.73384 20.4042 9.73384C21.0338 9.6752 21.7197 9.79248 22.2922 10.0836L22.6356 8.45091C22.0632 8.21737 21.4335 8.1001 20.8621 8.1001C18.9741 8.1001 17.6003 9.1505 17.6003 10.6083C17.6003 11.7174 18.5734 12.2997 19.2603 12.6505C20.0035 13.0003 20.2897 13.2338 20.2324 13.5836C20.2324 14.1083 19.66 14.3419 19.0886 14.3419C18.4017 14.3419 17.7147 14.167 17.0861 13.8748L16.7426 15.5086C17.4295 15.7997 18.1727 15.917 18.8596 15.917C20.9766 15.9746 22.2922 14.9252 22.2922 13.3501C22.2922 11.3666 19.6028 11.2503 19.6028 10.3758ZM29.1001 15.8583L27.5555 8.27499H25.8965C25.553 8.27499 25.2095 8.50853 25.0951 8.85833L22.2349 15.8583H24.2374L24.6371 14.7503H27.0976L27.3265 15.8583H29.1001ZM26.1827 10.3172L26.7541 13.1752H25.1523L26.1827 10.3172Z" fill="#172B85"/>
<rect x="1" y="0.5" width="33" height="23" rx="3.5" stroke="#F2F4F7"/>
</svg>
